<?xml version="1.0" encoding="utf-8"?>
<!-- Generator: Adobe Illustrator 27.5.0, SVG Export Plug-In . SVG Version: 6.00 Build 0)  -->
<svg version="1.1" xmlns="http://www.w3.org/2000/svg" xmlns:xlink="http://www.w3.org/1999/xlink" x="0px" y="0px"
	 viewBox="0 0 750 500" style="enable-background:new 0 0 750 500;" xml:space="preserve">
<g id="BACKGROUND">
	<rect style="fill:#FFFFFF;" width="750" height="500"/>
</g>
<g id="OBJECT">
	<g>
		<g>
			<path style="fill:#FFFBEA;" d="M28.238,404.749c0,0-12.573-220.829,163.654-277.333s224.384,56.101,339.639,46.671
				s232.972,62.383,185.03,230.662H28.238z"/>
			<polygon style="fill:#FCEED9;" points="443.498,131.794 443.498,163.756 375.579,163.756 375.579,99.697 364.082,99.697 
				364.082,85.303 315.283,85.303 315.283,99.697 302.786,99.697 302.786,241.622 274.403,241.622 274.403,143.804 252.644,143.804 
				252.644,132.604 220.967,132.604 220.967,143.804 213.119,143.804 213.119,241.622 213.119,261.949 213.119,404.535 
				513.129,404.535 513.129,270.486 513.129,241.622 513.129,131.794 			"/>
			<g>
				
					<rect x="349.507" y="303.13" transform="matrix(-1 -1.224647e-16 1.224647e-16 -1 702.4586 710.7162)" style="fill:#EFD9BB;" width="3.445" height="104.456"/>
				
					<rect x="269.804" y="303.13" transform="matrix(-1 -1.224647e-16 1.224647e-16 -1 543.0524 710.7162)" style="fill:#EFD9BB;" width="3.445" height="104.456"/>
				
					<rect x="229.73" y="303.13" transform="matrix(-1 -1.224647e-16 1.224647e-16 -1 462.9044 710.7162)" style="fill:#EFD9BB;" width="3.445" height="104.456"/>
				
					<rect x="389.581" y="303.13" transform="matrix(-1 -1.224647e-16 1.224647e-16 -1 782.6064 710.7162)" style="fill:#EFD9BB;" width="3.445" height="104.456"/>
				<path style="fill:#EFD9BB;" d="M346.759,268.371c0,0,38.986,29.357,46.267,34.759H271.839l-32.175-34.759H346.759z"/>
				<polygon style="fill:#EFD9BB;" points="239.664,268.371 229.673,303.13 271.839,303.13 				"/>
				<path style="fill:#EFD9BB;" d="M271.839,303.13c0,0,0.783,6.811,2.662,11.038l122.595-0.313c0,0-2.975-7.046-4.071-10.725
					H271.839z"/>
				<polygon style="fill:#EFD9BB;" points="346.759,268.371 344.88,262.735 239.664,262.735 239.664,268.371 				"/>
			</g>
			<g>
				<path style="fill:#EFD9BB;" d="M192.522,222.083c0.121-1.132,0.191-2.278,0.191-3.442c0-17.661-14.317-31.977-31.977-31.977
					c-5.01,0-9.731,1.185-13.952,3.238c-5.525-9.571-15.843-16.029-27.689-16.029c-10.346,0-19.517,4.935-25.362,12.555
					c-4.475-2.383-9.577-3.743-15.001-3.743c-17.66,0-31.977,14.316-31.977,31.977c0,0.066,0.009,0.13,0.01,0.196
					c-16.026,1.732-28.505,15.295-28.505,31.781c0,17.661,14.317,31.977,31.977,31.977c2.668,0,5.246-0.363,7.724-0.979
					c5.036,11.049,16.151,18.744,29.085,18.744c9.161,0,17.4-3.874,23.23-10.047c5.866,7.006,14.67,11.468,24.522,11.468
					c12.887,0,23.964-7.639,29.027-18.622c4.312,2.167,9.165,3.415,14.32,3.415c17.661,0,31.977-14.316,31.977-31.977
					C210.123,238.135,202.953,227.35,192.522,222.083z"/>
				<path style="fill:#EFD9BB;" d="M144.179,321.394l-4.69-6.111c0,0-5.973,3.046-13.551,8.434
					c0.106-15.908,2.089-31.643,7.44-44.533l-7.674-2.984c0,0-13.644,24.303-14.923,42.21c0,0-4.69-27.714-17.055-42.21l-4.69,7.248
					c0,0,9.806,17.481,11.085,49.884c1.279,32.404-20.039,71.203-20.039,71.203h57.133c0,0-9.3-32.991-11.014-68.576
					C132.245,330.049,138.822,324.321,144.179,321.394z"/>
			</g>
			<g>
				<path style="fill:#EFD9BB;" d="M721.038,143.798c0.116-1.081,0.183-2.177,0.183-3.289c0-16.876-13.681-30.557-30.557-30.557
					c-4.787,0-9.299,1.132-13.333,3.094c-5.28-9.146-15.139-15.317-26.459-15.317c-9.886,0-18.65,4.715-24.235,11.997
					c-4.276-2.277-9.152-3.577-14.334-3.577c-16.876,0-30.557,13.681-30.557,30.557c0,0.063,0.009,0.124,0.009,0.187
					c-15.314,1.655-27.239,14.616-27.239,30.37c0,16.876,13.681,30.557,30.557,30.557c2.55,0,5.013-0.347,7.381-0.935
					c4.813,10.558,15.433,17.911,27.794,17.911c8.755,0,16.628-3.702,22.199-9.601c5.605,6.695,14.018,10.959,23.433,10.959
					c12.315,0,22.9-7.3,27.738-17.795c4.121,2.07,8.758,3.264,13.684,3.264c16.876,0,30.557-13.681,30.557-30.557
					C737.857,159.137,731.006,148.831,721.038,143.798z"/>
				<path style="fill:#EFD9BB;" d="M697.705,235.215c0.037-0.349,0.059-0.703,0.059-1.062c0-5.449-4.417-9.867-9.867-9.867
					c-1.546,0-3.003,0.365-4.305,0.999c-1.705-2.953-4.888-4.946-8.543-4.946c-3.192,0-6.022,1.523-7.825,3.874
					c-1.381-0.735-2.955-1.155-4.628-1.155c-5.449,0-9.867,4.417-9.867,9.867c0,0.021,0.003,0.04,0.003,0.061
					c-4.945,0.534-8.795,4.719-8.795,9.806c0,5.449,4.417,9.867,9.866,9.867c0.823,0,1.619-0.112,2.383-0.302
					c1.554,3.409,4.983,5.783,8.974,5.783c2.827,0,5.369-1.195,7.168-3.1c1.81,2.162,4.526,3.538,7.566,3.538
					c3.976,0,7.394-2.357,8.956-5.746c1.331,0.668,2.828,1.054,4.418,1.054c5.449,0,9.867-4.417,9.867-9.867
					C703.136,240.168,700.924,236.84,697.705,235.215z"/>
				<path style="fill:#EFD9BB;" d="M671.022,227.8l-3.884-5.061c0,0-4.947,2.522-11.223,6.985
					c0.088-13.175,1.73-26.207,6.162-36.883l-6.356-2.472c0,0-11.3,20.128-12.359,34.959c0,0-3.884-22.953-14.125-34.959
					l-3.884,6.003c0,0,8.122,14.478,9.181,41.315c1.059,26.837-21.775,166.847-21.775,166.847h47.318
					c0,0-18.186-128.317-3.944-164.672C661.138,234.968,666.585,230.224,671.022,227.8z"/>
			</g>
			<path style="fill:#FCEED9;" d="M95.765,110.936h78.763c0,0-6.207-12.2-18.407-14.126c-12.2-1.926-14.768,5.297-20.975,4.975
				c-6.207-0.321-11.629-10.683-22.544-8.971c-10.916,1.712-11.272,15.321-24.756,9.551c-13.484-5.77-19.477,8.57-19.477,8.57
				H95.765z"/>
			<path style="fill:#FCEED9;" d="M440.14,85.303h65.707c0,0-6.849-13.749-20.547-16.103c-13.698-2.354-20.547,11.608-28.68,8.051
				C448.487,73.694,439.926,81.501,440.14,85.303z"/>
			<rect x="28.559" y="404.535" style="fill:#E0C5A4;" width="688.323" height="7.328"/>
			<path style="fill:#A8A856;" d="M37.977,404.535c0,0,0-19.426,17.979-25.419c17.979-5.993,27.824,8.347,27.824,8.347
				s5.612-8.092,17.765-6.421c17.122,2.354,17.122,23.329,17.122,23.329L37.977,404.535z"/>
			<path style="fill:#A8A856;" d="M329.448,404.535c0,0,0-19.426,17.979-25.419c17.979-5.993,27.824,8.347,27.824,8.347
				s5.612-8.092,17.764-6.421c17.122,2.354,17.122,23.329,17.122,23.329L329.448,404.535z"/>
		</g>
		<rect x="544.039" y="345.17" style="fill:#9C897A;" width="59.365" height="59.365"/>
	</g>
	<g>
		<g>
			<g>
				<g>
					<rect x="630.762" y="363.045" style="fill:#E7B142;" width="59.664" height="41.49"/>
					<rect x="623.521" y="363.045" style="fill:#D69D38;" width="32.294" height="41.49"/>
					<polygon style="fill:#D69D38;" points="655.815,363.045 660.594,369.924 695.06,369.924 690.426,363.045 					"/>
					<polygon style="fill:#E7B142;" points="655.815,363.045 651.326,369.924 619.032,369.924 623.521,363.045 					"/>
				</g>
				<g>
					<path style="fill:#A8A856;" d="M673.536,342.788c0.025-3.16-3.43-0.73-3.43-0.73s0.722-4.616-0.448-6.744
						c-2.129-3.872-4.438,0.066-4.438,0.066s-0.432-4.451-3.621-3.889c-3.189,0.562-0.394,5.064-0.394,5.064
						s-3.918-0.723-3.336,2.442c0.492,2.677,4.575,5.473,4.575,5.473s-2.698,0.621-2.033,2.78c0.665,2.159,9.328,3.043,9.328,3.043
						S673.511,345.948,673.536,342.788z"/>
					<polygon style="fill:#9C897A;" points="661.318,349.505 662.838,363.045 675.437,363.045 676.885,349.505 					"/>
					<path style="fill:#A8A856;" d="M677.103,345.052c-1.429,3.082-5.697,4.815-5.961,4.917c-0.01,0.01-0.01,0.01-0.01,0.01
						s-1.379-4.095,0.395-7.714c1.774-3.619,6.549-4.42,6.549-4.42S678.583,341.869,677.103,345.052z"/>
					<path style="fill:#A8A856;" d="M678.076,337.845c-3.639,2.686-6.802,11.708-6.934,12.124c-0.01,0.01-0.01,0.01-0.01,0.01
						s-1.379-4.095,0.395-7.714C673.301,338.645,678.076,337.845,678.076,337.845z"/>
					<polygon style="fill:#AD998C;" points="660.63,349.505 660.883,351.677 677.175,351.677 677.429,349.505 					"/>
				</g>
			</g>
			<rect x="446.45" y="187.726" style="fill:#7F6B5D;" width="7.15" height="216.809"/>
			<g>
				<path style="fill:#4C8291;" d="M452.526,239.459c0,0,1.584,5.069,8.871,5.069s7.96-5.069,7.96-5.069s5.729,1.843,10.693,4.906
					c4.964,3.063,9.373,13.114,9.373,13.114l-5.703,5.28l-6.97-4.858v42.877h-32.738l0.158-41.952l-6.175,4.33l-7.131-9.161
					c0,0,6.513-8.274,10.489-10.579C445.328,241.109,452.526,239.459,452.526,239.459z"/>
				<path style="fill:#E7B142;" d="M482.941,239.459c0,0,1.584,5.069,8.871,5.069c7.287,0,7.96-5.069,7.96-5.069
					s5.729,1.843,10.693,4.906c4.964,3.063,9.373,13.114,9.373,13.114l-5.703,5.28l-6.97-4.858l1.162,48.368H472.05l2.535-47.444
					l-6.175,4.33l-7.131-9.161c0,0,6.513-8.274,10.489-10.579C475.743,241.109,482.941,239.459,482.941,239.459z"/>
				<path style="fill:#8A93E2;" d="M602.475,291.721l-13.014-34.201l0,0l0-0.001l-0.103-0.27l-0.016,0.002
					c-0.697-1.559-4.671-10.106-9.176-12.886c-4.964-3.063-10.693-4.906-10.693-4.906s-0.673,5.069-7.96,5.069
					c-7.287,0-8.871-5.069-8.871-5.069s-7.197,1.65-11.173,3.955c-3.976,2.305-8.513,13.28-8.513,13.28l-13.117,34.472l11.511,4.541
					l13.405-29.653l-8.124,63.658h46.507l-5.645-63.254l13.473,29.803L602.475,291.721z"/>
				<path style="fill:#A8A856;" d="M596.527,239.459c0,0,1.584,5.069,8.871,5.069c7.287,0,7.96-5.069,7.96-5.069
					s5.729,1.843,10.693,4.906c4.964,3.063,9.373,13.114,9.373,13.114l-5.703,5.28l-6.97-4.858v42.877h-32.738l0.158-41.952
					l-6.175,4.33l-7.131-9.161c0,0,6.513-8.274,10.489-10.579C589.33,241.109,596.527,239.459,596.527,239.459z"/>
				<polyline style="fill:none;stroke:#5F3E1B;stroke-width:0.5;stroke-miterlimit:10;" points="483.146,240.239 491.463,237.665 
					500.215,240.318 				"/>
				<g>
					<path style="fill:#5E4F45;" d="M656.753,404.535h-1.998v-160.87c0-5.855-4.763-10.618-10.618-10.618H431.655
						c-5.855,0-10.618,4.763-10.618,10.618v160.87h-1.998v-160.87c0-6.957,5.659-12.616,12.616-12.616h212.482
						c6.957,0,12.616,5.659,12.616,12.616V404.535z"/>
				</g>
				<path style="fill:none;stroke:#5F3E1B;stroke-width:0.5;stroke-linecap:round;stroke-miterlimit:10;" d="M491.463,237.665
					v-2.813c0,0,2.237-0.766,2.237-3.3c0-2.535-3.749-2.218-3.723,0.158"/>
				<polyline style="fill:none;stroke:#5F3E1B;stroke-width:0.5;stroke-miterlimit:10;" points="452.407,240.239 460.723,237.665 
					469.476,240.318 				"/>
				<path style="fill:none;stroke:#5F3E1B;stroke-width:0.5;stroke-linecap:round;stroke-miterlimit:10;" d="M460.723,237.665
					v-2.813c0,0,2.237-0.766,2.237-3.3c0-2.535-3.749-2.218-3.723,0.158"/>
				<polyline style="fill:none;stroke:#5F3E1B;stroke-width:0.5;stroke-miterlimit:10;" points="552.621,240.239 560.938,237.665 
					569.691,240.318 				"/>
				<path style="fill:none;stroke:#5F3E1B;stroke-width:0.5;stroke-linecap:round;stroke-miterlimit:10;" d="M560.938,237.665
					v-2.813c0,0,2.237-0.766,2.237-3.3c0-2.535-3.749-2.218-3.723,0.158"/>
				<polyline style="fill:none;stroke:#5F3E1B;stroke-width:0.5;stroke-miterlimit:10;" points="596.521,240.239 604.838,237.665 
					613.591,240.318 				"/>
				<path style="fill:none;stroke:#5F3E1B;stroke-width:0.5;stroke-linecap:round;stroke-miterlimit:10;" d="M604.838,237.665
					v-2.813c0,0,2.237-0.766,2.237-3.3c0-2.535-3.749-2.218-3.723,0.158"/>
			</g>
			<rect x="611.882" y="187.726" style="fill:#9C897A;" width="7.15" height="216.809"/>
			<rect x="695.06" y="187.726" style="fill:#7F6B5D;" width="7.15" height="216.809"/>
			<rect x="363.272" y="187.726" style="fill:#9C897A;" width="7.15" height="216.809"/>
			<path style="fill:#FFF5DD;" d="M459.304,115.58c0,0-80.92,60.934-96.032,72.146h251.535l66.784-72.146H459.304z"/>
			<polygon style="fill:#FF9178;" points="681.591,115.58 702.328,187.726 614.807,187.726 			"/>
			<path style="fill:#E8D5AF;" d="M614.807,187.726c0,0-1.625,14.137-5.525,22.911l-254.46-0.65c0,0,6.175-14.624,8.449-22.261
				H614.807z"/>
			<polygon style="fill:#FF9178;" points="459.304,115.58 463.203,103.881 681.591,103.881 681.591,115.58 			"/>
		</g>
		<g>
			<g>
				<rect x="206.271" y="335.16" style="fill:#9C897A;" width="147.109" height="5.062"/>
				<rect x="217.739" y="340.222" style="fill:#C5BA9F;" width="122.195" height="19.219"/>
				<rect x="217.739" y="359.441" style="fill:#9C897A;" width="3.322" height="45.094"/>
				<rect x="336.613" y="359.441" style="fill:#9C897A;" width="3.322" height="45.094"/>
				<path style="fill:#9C897A;" d="M225.886,359.441h-4.825v4.824v7.988c2.665,0,4.825-2.16,4.825-4.824v-3.164h3.164
					c2.665,0,4.825-2.16,4.825-4.824H225.886z"/>
				<path style="fill:#9C897A;" d="M331.788,359.441h4.825v4.824v7.988c-2.664,0-4.825-2.16-4.825-4.824v-3.164h-3.164
					c-2.664,0-4.825-2.16-4.825-4.824H331.788z"/>
				<path style="fill:#9C897A;" d="M269.054,354.933h-43.786c-0.533,0-0.964-0.432-0.964-0.964v-8.511
					c0-0.533,0.432-0.964,0.964-0.964h43.786c0.533,0,0.964,0.432,0.964,0.964v8.511
					C270.018,354.501,269.587,354.933,269.054,354.933z"/>
				<path style="fill:#9C897A;" d="M332.168,354.933h-43.786c-0.533,0-0.964-0.432-0.964-0.964v-8.511
					c0-0.533,0.432-0.964,0.964-0.964h43.786c0.533,0,0.964,0.432,0.964,0.964v8.511
					C333.133,354.501,332.701,354.933,332.168,354.933z"/>
			</g>
			<g>
				<path style="fill:#5E4F45;" d="M311.519,329.956h-4.592v-18.216h-2.066v18.216h-4.21c-2.874,0-5.205,2.33-5.205,5.205h1.225
					h20.053C316.724,332.286,314.394,329.956,311.519,329.956z"/>
				<polygon style="fill:#FF9178;" points="313.815,290.614 311.366,290.614 300.804,290.614 298.354,290.614 290.241,316.332 
					300.804,316.332 311.366,316.332 321.928,316.332 				"/>
			</g>
			<g>
				<path style="fill:#C5BA9F;" d="M277.526,335.16h-45.61c-2.457,0-4.449-1.992-4.449-4.448v-21.328
					c0-2.457,1.992-4.449,4.449-4.449h45.61c2.457,0,4.448,1.992,4.448,4.449v21.328C281.975,333.169,279.983,335.16,277.526,335.16
					z"/>
				<circle style="fill:#9C897A;" cx="238.347" cy="320.779" r="7.577"/>
				<circle style="fill:#9C897A;" cx="270.018" cy="320.779" r="7.577"/>
				<rect x="249.943" y="317.564" style="fill:#9C897A;" width="8.037" height="5.886"/>
			</g>
		</g>
		<g>
			<g>
				<rect x="53.402" y="366.504" style="fill:#9C897A;" width="157.244" height="6.958"/>
				<path style="fill:#C4C29D;" d="M96.88,402.148l-8.864-28.687H85.81l6.591,25.874c0.227,0.733-0.321,1.476-1.089,1.476H76.945
					c-0.777,0-1.326-0.76-1.082-1.498l7.011-25.852h-1.989l-9.497,28.652c-0.377,1.137,0.47,2.309,1.667,2.309h22.147
					C96.385,404.423,97.229,403.278,96.88,402.148z"/>
				<path style="fill:#F7F7AF;" d="M84.878,402.148l-8.864-28.687h-2.207l6.591,25.874c0.227,0.733-0.321,1.476-1.089,1.476H64.943
					c-0.777,0-1.326-0.76-1.082-1.498l7.011-25.852h-1.99l-9.497,28.652c-0.377,1.137,0.47,2.309,1.667,2.309H83.2
					C84.383,404.423,85.228,403.278,84.878,402.148z"/>
				<path style="fill:#C4C29D;" d="M165.413,402.148l8.864-28.687h2.207l-6.591,25.874c-0.227,0.733,0.321,1.476,1.089,1.476h14.367
					c0.777,0,1.326-0.76,1.082-1.498l-7.011-25.852h1.99l9.497,28.652c0.377,1.137-0.47,2.309-1.667,2.309h-22.147
					C165.908,404.423,165.063,403.278,165.413,402.148z"/>
				<path style="fill:#F7F7AF;" d="M177.415,402.148l8.864-28.687h2.207l-6.591,25.874c-0.227,0.733,0.321,1.476,1.089,1.476h14.367
					c0.777,0,1.326-0.76,1.082-1.498l-7.011-25.852h1.99l9.497,28.652c0.377,1.137-0.47,2.309-1.667,2.309h-22.147
					C177.91,404.423,177.065,403.278,177.415,402.148z"/>
			</g>
			<g>
				<path style="fill:#8D8E3E;" d="M62.34,355.325c0,0-1.017-2.996-2.14-4.869c-1.124-1.873-0.754-2.461-1.875-4.013
					c-1.121-1.552-2.833-0.91-3.797-2.782c-0.963-1.873-3.692-1.07-4.762-2.622c-1.07-1.552-0.321-2.033-1.284-3.318
					c-0.963-1.284,1.605-1.391,2.782,0.642c1.177,2.033,1.819,1.712,3.585,2.247c1.766,0.535,1.391,2.889,2.568,2.943
					c1.177,0.053,2.461-0.075,3.799,2.504c1.338,2.579,1.231,5.95,1.926,6.378c0.696,0.428,0.375,2.515,0.375,2.515L62.34,355.325z"
					/>
				<path style="fill:#A8A856;" d="M62.875,353.666c0,0-1.873-4.441-2.301-7.331c-0.428-2.889-0.482-4.441-1.98-6.153
					c-1.498-1.712-2.354-3.157-1.926-4.923c0.428-1.766-2.14-2.354-2.301-4.441c-0.16-2.087,0.268-2.782,0-3.799
					c-0.267-1.017-0.395-2.301-0.037-2.301s2.391,2.194,2.445,4.12c0.053,1.926-0.097,1.659,1.717,3.424
					c1.814,1.766,0.155,4.013,1.118,5.511c0.963,1.498,2.033,0.268,2.836,4.441c0.803,4.174,0.749,5.939,1.659,7.384
					c0.91,1.445,0.589,5.404,0.589,5.404l-1.838,0.157L62.875,353.666z"/>
				<path style="fill:#8D8E3E;" d="M63.591,351.776c0,0-0.431-7.42,0.568-10.345c0.999-2.925,1.037-4.209,0.59-6.492
					c-0.447-2.283,0.623-4.851,1.408-5.707c0.785-0.856,0.785-4.459,2.069-4.512c1.284-0.053-0.499,4.512,0,5.44
					c0.499,0.927-1.498,3.781-1.07,5.279c0.428,1.498,1.213,3.496,0.214,6.706c-0.999,3.211-2.54,3.924-1.27,5.922
					c1.27,1.998,0,6.778,0,6.778l-2.012-0.285L63.591,351.776z"/>
				<path style="fill:#A8A856;" d="M68.012,354.844c0,0,2.069-4.566,1.784-7.919c-0.285-3.353,2.212-4.409,3.282-6.985
					c1.07-2.575-0.118-4.858-0.238-7.213c-0.119-2.354,0.38-4.209-0.547-4.78c-0.927-0.571-1.57,3.71-0.856,5.422
					c0.714,1.712-0.499,2.782-1.355,4.78c-0.856,1.998-0.571,2.426-2.069,4.709c-1.498,2.283-1.912,11.986-1.912,11.986H68.012z"/>
				<path style="fill:#ECA742;" d="M57.611,350.788v8.572c0,2.44,1.471,4.534,3.574,5.449v1.695h7.945v-1.988
					c1.788-1.025,2.996-2.948,2.996-5.156v-8.572H57.611z"/>
			</g>
			<g>
				<path style="fill:none;stroke:#70702A;stroke-miterlimit:10;" d="M103.039,323.526c0,0,5.184,7.156,4.395,22.305"/>
				<path style="fill:none;stroke:#70702A;stroke-miterlimit:10;" d="M107.599,350.999c0,0,2.925-18.121,12.628-16.908"/>
				<path style="fill:#8D8E3E;" d="M136.091,343.236c0.077-1.031,1.48-1.886,3.151-2.549c-0.316-1.208-0.714-2.403-1.211-3.537
					c-2.802,1.669-6.819,3.746-7.006,2.049c-0.184-1.671,3.152-3.531,5.587-4.659c-0.781-1.162-1.717-2.187-2.841-2.997
					c-2.471,1.981-7.297,5.559-7.737,3.659c-0.366-1.578,2.495-3.717,4.749-5.129c-2.862-0.853-6.954-1.868-11.865,1.894
					c-2.114,1.619-4.181,3.836-3.543,10.044c0.155,1.503,0.64,2.806,1.364,3.943c0.632-2.615,1.841-6.425,3.559-6.565
					c2.072-0.169-0.27,6.306-1.344,9.033c1.11,0.91,2.413,1.658,3.819,2.274c0.255-2.59,0.976-7.389,2.852-7.769
					c1.952-0.395,0.6,5.743-0.173,8.752c1.337,0.414,2.709,0.74,4.057,0.99c-0.08-2.548,0.129-5.59,1.504-6.145
					c1.497-0.604,1.644,3.409,1.535,6.602c4.342,0.515,7.799,0.372,7.799,0.372s0.376-4.661-0.482-9.865
					C137.778,344.179,136.01,344.331,136.091,343.236z"/>
				<path style="fill:none;stroke:#70702A;stroke-miterlimit:10;" d="M98.752,332.386c0,0,4.539-0.801,7.014,6.199
					c2.475,7,1.262,14.277,1.262,14.277"/>
				<path style="fill:none;stroke:#70702A;stroke-miterlimit:10;" d="M108.669,350.115c0,0-3.317-22.045,7.705-28.894"/>
				<path style="fill:#766A5A;" d="M118.74,366.504H96.207c-2.88,0-5.214-2.335-5.214-5.214v-8.421c0-2.88,2.335-5.214,5.214-5.214
					h22.532c2.88,0,5.214,2.335,5.214,5.214v8.421C123.954,364.169,121.619,366.504,118.74,366.504z"/>
				<path style="fill:#A8A856;" d="M131.794,318.334c-0.524-0.891,0.142-2.394,1.139-3.89c-0.947-0.813-1.955-1.569-3.01-2.218
					c-1.353,2.968-3.472,6.963-4.592,5.674c-1.103-1.269,0.58-4.698,1.939-7.012c-1.304-0.51-2.657-0.82-4.042-0.846
					c-0.903,3.036-2.833,8.725-4.276,7.414c-1.2-1.089-0.066-4.476,0.983-6.92c-2.838,0.929-6.779,2.425-8.675,8.314
					c-0.816,2.534-1.252,5.535,2.808,10.273c0.983,1.147,2.124,1.942,3.367,2.465c-0.97-2.509-2.146-6.33-0.813-7.424
					c1.607-1.319,3.37,5.337,4.039,8.19c1.431,0.116,2.928-0.011,4.434-0.305c-1.266-2.274-3.406-6.63-2.08-8.01
					c1.38-1.436,3.764,4.379,4.842,7.293c1.334-0.421,2.648-0.934,3.898-1.496c-1.517-2.049-3.078-4.668-2.263-5.908
					c0.886-1.349,3.293,1.866,5.021,4.552c3.862-2.049,6.622-4.136,6.622-4.136s-2.345-4.046-6.015-7.834
					C133.717,318.149,132.351,319.281,131.794,318.334z"/>
				<path style="fill:#A8A856;" d="M82.31,336.703c0.212-0.999-0.883-2.199-2.286-3.29c0.634-1.059,1.341-2.083,2.127-3.021
					c2.197,2.358,5.435,5.439,6.081,3.881c0.637-1.535-2.015-4.222-4.013-5.965c1.062-0.887,2.234-1.601,3.524-2.059
					c1.797,2.563,5.387,7.291,6.33,5.611c0.783-1.396-1.34-4.216-3.088-6.179c2.951-0.018,7.114,0.15,10.735,5.077
					c1.558,2.12,2.907,4.796,0.585,10.509c-0.562,1.383-1.383,2.486-2.384,3.365c0.123-2.655,0.03-6.605-1.562-7.213
					c-1.919-0.733-1.487,6.058-1.221,8.942c-1.305,0.556-2.748,0.906-4.252,1.102c0.474-2.527,1.117-7.281-0.559-8.16
					c-1.743-0.914-2.156,5.284-2.254,8.352c-1.383,0.023-2.775-0.046-4.123-0.182c0.78-2.396,1.423-5.34,0.271-6.247
					c-1.253-0.987-2.502,2.78-3.281,5.84c-4.262-0.711-7.502-1.803-7.502-1.803s0.931-4.526,3.184-9.227
					C80.449,337.132,82.084,337.765,82.31,336.703z"/>
				<path style="fill:#8D8E3E;" d="M90.38,310.012c0.716-0.563,0.651-2.01,0.314-3.559c1.039-0.363,2.108-0.66,3.182-0.855
					c0.158,2.87,0.615,6.83,1.948,6.131c1.313-0.688,1.032-4.042,0.659-6.378c1.234-0.001,2.444,0.18,3.59,0.603
					c-0.233,2.782-0.475,8.071,1.13,7.458c1.334-0.509,1.491-3.653,1.414-5.996c2.032,1.673,4.786,4.166,4.452,9.608
					c-0.144,2.342-0.749,4.945-5.602,7.532c-1.175,0.626-2.367,0.912-3.555,0.943c1.601-1.748,3.793-4.507,3.05-5.833
					c-0.896-1.598-4.479,3.3-5.944,5.427c-1.212-0.364-2.4-0.949-3.541-1.674c1.768-1.46,4.924-4.349,4.278-5.908
					c-0.672-1.621-4.495,2.387-6.315,4.432c-0.96-0.774-1.874-1.617-2.72-2.479c1.903-1.195,4.025-2.844,3.754-4.123
					c-0.295-1.391-3.301,0.475-5.583,2.125c-2.513-2.921-4.108-5.52-4.108-5.52s3.223-2.568,7.451-4.5
					C88.861,309.243,89.619,310.61,90.38,310.012z"/>
			</g>
		</g>
		<g>
			<g>
				<path style="fill:#FF9178;" d="M534.938,368.34h-35.743c-1.655,0-2.996-1.341-2.996-2.996v-0.069
					c0-1.655,1.341-2.996,2.996-2.996h35.743V368.34z"/>
				<path style="fill:#FFF1BF;" d="M534.938,366.916h-19.532c-0.955,0-1.728-0.774-1.728-1.728v-0.039
					c0-0.954,0.774-1.728,1.728-1.728h19.532V366.916z"/>
			</g>
			<g>
				<path style="fill:#8A93E2;" d="M538.041,362.279h-35.744c-1.655,0-2.996-1.341-2.996-2.996v-0.068
					c0-1.655,1.341-2.996,2.996-2.996h35.744V362.279z"/>
				<path style="fill:#FFF1BF;" d="M538.041,360.856h-19.532c-0.954,0-1.728-0.774-1.728-1.728v-0.039
					c0-0.954,0.774-1.728,1.728-1.728h19.532V360.856z"/>
			</g>
			<g>
				<path style="fill:#766A5A;" d="M536.15,356.219h-35.743c-1.655,0-2.996-1.341-2.996-2.996v-0.069
					c0-1.655,1.341-2.996,2.996-2.996h35.743V356.219z"/>
				<path style="fill:#FFF1BF;" d="M536.15,354.795h-19.532c-0.954,0-1.728-0.774-1.728-1.728v-0.039
					c0-0.954,0.774-1.728,1.728-1.728h19.532V354.795z"/>
			</g>
			<g>
				<path style="fill:#E7B142;" d="M491.708,368.34v36.195h48.184V368.34H491.708z"/>
				<path style="fill:#D69D38;" d="M520.517,377.19h-10.113c-1.286,0-2.328-1.042-2.328-2.328v-0.053
					c0-1.285,1.042-2.328,2.328-2.328h10.113c1.286,0,2.328,1.042,2.328,2.328v0.053C522.845,376.148,521.803,377.19,520.517,377.19
					z"/>
			</g>
		</g>
		<polygon style="fill:#FFB1A4;" points="395.429,187.726 483.146,115.58 459.304,115.58 363.272,187.726 		"/>
		<polygon style="fill:#FFB1A4;" points="463.02,187.726 539.734,115.58 512.653,115.58 430.863,187.726 		"/>
		<polygon style="fill:#FFB1A4;" points="522.133,187.726 598.848,115.58 571.766,115.58 489.977,187.726 		"/>
		<polygon style="fill:#FFB1A4;" points="584.796,187.726 661.51,115.58 634.429,115.58 552.639,187.726 		"/>
		<polygon style="fill:#FF9178;" points="395.429,187.726 388.571,210.073 354.822,210.073 363.272,187.726 		"/>
		<polygon style="fill:#FF9178;" points="430.863,187.726 424.786,210.166 456.999,210.166 463.02,187.726 		"/>
		<polygon style="fill:#FF9178;" points="489.223,187.726 483.146,210.166 515.36,210.166 521.38,187.726 		"/>
		<polygon style="fill:#FF9178;" points="552.67,187.726 546.592,210.166 578.806,210.166 584.826,187.726 		"/>
	</g>
	<g>
		<g>
			<path style="fill:#353235;" d="M399.45,368.34h-12.43l-0.79-38.85l-0.86,0.13l-4.99,38.72h-12.23c0,0-2.85-14.67-2.06-30.29
				c0.79-15.63,6.27-23.6,6.27-23.6l19.98-1.62l5.26-0.43c0,0,0.36,0.52,0.92,1.57c0.22,0.41,0.47,0.9,0.73,1.47
				c1.24,2.62,2.88,6.94,3.95,13.02C405.1,339.25,399.45,368.34,399.45,368.34z"/>
			<path style="fill:#242426;" d="M400.43,314.45l-1.18,0.99l-2.15,1.81c0,0-18.39-2.25-23.67,15.46
				c-5.29,17.72-0.72,35.63-0.72,35.63h-4.56c0,0-2.85-14.67-2.06-30.29c0.79-15.63,6.27-23.6,6.27-23.6l19.98-1.62
				c2.57,0.36,4.74,0.81,6.18,1.14C399.73,314.25,400.43,314.45,400.43,314.45z"/>
			<path style="fill:#AA6750;" d="M392.773,274.741c0,0,4.177,3.532,5.672,8.966c1.494,5.434,6.657,24.769,6.657,24.769h-8.763
				C396.339,308.475,391.72,277.322,392.773,274.741z"/>
			<path style="fill:#4C8291;" d="M384.525,271.48c0,0,6.89,2.853,8.248,3.26c0,0,5.332,5.434,4.789,17.524
				c-0.543,12.09-2.148,24.435-2.148,24.435l-21.089,0.55c0,0-9.905-33.262-8.819-38.424c1.087-5.162,12.992-7.345,12.992-7.345
				H384.525z"/>
			<path style="fill:#AA6750;" d="M377.802,265.236l0.726,7.744c0,0,4.961,4.053,6.594,1.452l-0.665-5.929L377.802,265.236z"/>
			<path style="fill:#BA785B;" d="M375.387,260.898c1.308,6.54,7.245,10.31,11.17,8.809c4.018-1.537,4.264-8.912,3.421-13.13
				c-0.844-4.218-4.835-6.622-9.053-5.778C376.706,251.642,374.543,256.68,375.387,260.898z"/>
			<path style="fill:#2C2D32;" d="M377.802,248.76c0,0-4.591,0.968-5.966,7.285c-1.375,6.317,1.33,11.207,2.983,12.277
				c1.653,1.07,3.372,1.066,3.372,1.066s0.381-1.729-0.389-3.868c0,0-2.4-1.732-2.196-4.381c0.204-2.649,1.743-2.347,2.196-2.065
				s0.483,1.963,0.483,1.963s1.141,0.306,1.753-1.324c0.611-1.63,0-3.617,0-3.617s4.628-2.067,5.498-4.905
				c0,0,2.08,3.461,4.277,4.718c2.197,1.257,1.586-5.365-2.897-7.148C382.432,246.977,378.622,248.097,377.802,248.76z"/>
			<path style="fill:#2C2D32;" d="M378.051,249.218c0,0-1.936-3.617-5.807-2.802s-6.317,5.094-6.419,9.323
				c-0.102,4.228,1.885,1.681,1.885,1.681s-1.987,6.368,0.56,6.775c2.547,0.408,4.285-9.221,6.447-10.647
				C376.879,252.122,378.051,249.218,378.051,249.218z"/>
			<path style="fill:#BA785B;" d="M365.821,277.917c0,0-3.24,1.171-4.462,8.778l-4.619,26.354l9.351,1.087l5.368-26.354
				C371.458,287.782,370.419,281.365,365.821,277.917z"/>
			<path style="fill:#F7F7AF;" d="M397.6,331.39c0,0,0.44-14.74-3.98-16.34c-3.53-1.27-8.36-1.53-10.13-1.58
				c-0.45-0.01-0.7-0.01-0.7-0.01s0.16-0.41,0.59-1.02c0.5-0.71,1.38-1.7,2.81-2.64c1.47-0.99,3.55-1.92,6.41-2.46
				c8.02-1.49,16.03,0.85,18.89,3.61c1.97,1.91,3.43,10.37,4.13,15.41c0.32,2.25,0.49,3.81,0.49,3.81L397.6,331.39z"/>
			<path style="fill:#E5E39C;" d="M397.6,331.39c0,0,0.44-14.74-3.98-16.34c-3.53-1.27-8.36-1.53-10.13-1.58l-0.11-1.03
				c0.5-0.71,1.38-1.7,2.81-2.64c4.06-0.69,11.17-0.74,14.24,6.2c3.58,8.08,10,11.31,15.19,10.36c0.32,2.25,0.49,3.81,0.49,3.81
				L397.6,331.39z"/>
			<path style="fill:#BA785B;" d="M356.74,313.049c0,0,4.612-1.77,8.683-2.515c4.071-0.745,21.203,2.515,21.203,2.515v5.162
				c0,0-8.694,0.577-19.223,0C357.212,317.653,356.74,313.049,356.74,313.049z"/>
			<path style="fill:#BA785B;" d="M386.117,313.423c0,0,2.377-1.936,3.498-2.309c1.121-0.374,4.211,0,4.211,0
				s0.068,0.921-0.543,1.072s-2.615,0.219-2.615,0.219l-0.695,0.815l3.65,1.834h3.668c0,0,0,1.392-1.63,1.46
				c0,0,0.034,1.189-1.257,1.63c0,0-0.136,0.951-1.291,1.121c0,0-0.849,0.679-1.902,0.509c-1.053-0.17-5.264-1.868-5.264-1.868
				L386.117,313.423z"/>
			<path style="fill:#BA785B;" d="M368.151,368.34c0,0,1.601,32.528,2.009,40.678h7.002l3.219-40.678H368.151z"/>
			<path style="fill:#AA6750;" d="M387.022,368.34c0,0-0.712,7.472,0,17.388c0.713,9.917,1.853,23.168,1.853,23.168l7.032-0.067
				l2.945-40.489H387.022z"/>
			<path style="fill:#766A5A;" d="M384.816,413.299c0,0-0.268-1.391-3.103-2.782s-4.691-1.498-4.691-1.498h-6.863
				c0,0-0.593,3.531-0.272,5.19h14.929C384.816,414.208,385.03,413.779,384.816,413.299z"/>
			<path style="fill:#766A5A;" d="M403.544,413.103c0,0-0.268-1.391-3.104-2.782s-4.691-1.498-4.691-1.498h-6.863
				c0,0-0.593,3.531-0.272,5.19h14.929C403.544,414.013,403.758,413.583,403.544,413.103z"/>
			<path style="fill:#2A6777;" d="M395.643,290.053l-16.005,3.05c0,0,3.667,1.842,9.943,1.262
				C395.857,293.786,395.643,290.053,395.643,290.053z"/>
			<path style="fill:#2A6777;" d="M371.458,287.782c0,0,1.79,19.837,2.755,23.26l-1.746-0.217l-3.106-11.413L371.458,287.782z"/>
			<path style="fill:#242426;" d="M386.23,329.487l5.389-2.059c0,0-1.904,14.357-1.476,26.5c0.428,12.143,0.643,14.411,0.643,14.411
				h-3.763L386.23,329.487z"/>
			<path style="fill:#AA6750;" d="M365.423,310.948l-5.851,2.195C359.571,313.143,361.274,309.253,365.423,310.948z"/>
		</g>
		<g>
			<path style="fill:none;stroke:#C5BA9F;stroke-linecap:round;stroke-miterlimit:10;" d="M446.668,296.13
				c0,0,4.869,2.238,5.297,11.631"/>
			<path style="fill:#FF9B74;" d="M482.283,291.768c0,0,1.944,9.358,2.409,14.501s-5.385,10.136-5.385,10.136l-3.282-11.09
				l3.228-13.547H482.283z"/>
			<path style="fill:#CAD2FF;" d="M478.549,274.74c0,0,2.477,0.08,3.975,3.79c1.498,3.71,2.925,10.131,1.712,11.914
				c-1.213,1.784-4.959,1.88-4.959,1.88L478.549,274.74z"/>
			<path style="fill:#EAE1B9;" d="M469.899,265.236l-0.726,7.744c0,0-4.961,4.053-6.594,1.452l0.665-5.929L469.899,265.236z"/>
			<path style="fill:#FF9B74;" d="M472.313,260.898c-1.308,6.54-7.245,10.31-11.17,8.809c-4.018-1.537-4.264-8.912-3.42-13.13
				c0.844-4.218,4.835-6.622,9.053-5.778C470.994,251.642,473.157,256.68,472.313,260.898z"/>
			<path style="fill:#E07E61;" d="M483.681,370.127c0,0-1.539,31.26-1.93,39.093h-6.729l-3.094-39.093H483.681z"/>
			<path style="fill:#FF9B74;" d="M467.809,370.127c0,0,0.685,7.181,0,16.711c-0.685,9.53-1.78,22.265-1.78,22.265l-6.758-0.065
				l-2.831-38.911H467.809z"/>
			<path style="fill:#766A5A;" d="M467.665,413.334c0,0,0.257-1.337,2.983-2.674s4.508-1.44,4.508-1.44h6.595
				c0,0,0.57,3.394,0.261,4.988h-14.347C467.665,414.208,467.459,413.796,467.665,413.334z"/>
			<path style="fill:#766A5A;" d="M451.931,413.146c0,0,0.257-1.337,2.983-2.674s4.508-1.44,4.508-1.44h6.595
				c0,0,0.57,3.394,0.261,4.988h-14.347C451.931,414.02,451.726,413.608,451.931,413.146z"/>
			<path style="fill:#8A93E2;" d="M484.69,373.98h-30.42c0,0-4.07-19.26-4.25-38.82v-0.78c0-19.03,6.1-28.11,6.1-28.11
				c-0.62-2.12-1.41-6.03-1.72-12.84c-0.13-2.85-0.15-5.39-0.11-7.62c0.12-7.21,0.9-11.07,0.9-11.07c1.36-0.41,8.25-3.26,8.25-3.26
				h6.02c0,0,10.26,1.24,11.35,6.4c0.86,4.09-2.47,20.71-3.88,27.44c3.8,4.64,5.41,10.1,5.99,15.25c0.12,1.03,0.2,2.04,0.25,3.04
				c0.01,0.26,0.02,0.53,0.03,0.79c0.05,1.77,0.01,3.47-0.07,5.03c-0.11,2.23-0.29,4.19-0.4,5.73c-0.33,4.94,1.04,25.74,1.67,34.69
				c0.01,0.08,0.01,0.17,0.02,0.25C484.58,372.49,484.69,373.98,484.69,373.98z"/>
			<path style="fill:#CAD2FF;" d="M461.155,272.416c0,0,0.388-0.984,2.93-1.84c2.542-0.856,5.511-0.755,6.394-0.458
				c0.883,0.297,1.016,1.823,1.016,1.823S468.712,272.571,461.155,272.416z"/>
			<path style="fill:#727FCC;" d="M484.69,373.98h-30.42c0,0-4.07-19.26-4.25-38.82v-0.78c0-19.03,6.1-28.11,6.1-28.11
				c-0.62-2.12-1.41-6.03-1.72-12.84c-0.13-2.85-0.15-5.39-0.11-7.62l3.04,2.99l2.81,18.96c0,0-3.83,30.04-1.7,47.04
				c1.57,12.51,17.63,14.91,25.98,15.3C484.58,372.49,484.69,373.98,484.69,373.98z"/>
			<path style="fill:#473A33;" d="M459.406,253.131c0,0-0.424,3.025,0,4.88c0.424,1.855,1.388,2.14,1.388,2.14
				s-0.285,2.176,0.785,2.782c0,0,0.072-2.489,0.999-2.6c0.927-0.111,1.89,2.351,1.462,4.277s-1.962,1.748-1.962,1.748
				s0.244,4.245,2.833,7.277s-1.295,9.096,1.414,10.915c2.709,1.819,7.953,1.712,10.414-0.357c2.461-2.069,2.105-9.025,0.749-12.556
				c-1.356-3.531-2.711-8.561-2.64-12.663c0.071-4.102-2.355-5.387-2.355-5.387s-0.32-3.139-4.922-4.245
				c-4.602-1.106-10.452,2.212-10.559,5.386c-0.107,3.175,0.454,3.526,0.454,3.526S457.912,254.173,459.406,253.131z"/>
			<path style="fill:#FF9B74;" d="M448.844,288.795c-0.436,0.228-3.139,7.335-3.139,7.335l-15.865-3.429l-0.972,3.429
				c0,0,15.196,7.408,18.977,6.707c3.781-0.701,7.342-11.545,7.342-11.545L448.844,288.795z"/>
			<path style="fill:#CAD2FF;" d="M455.188,274.741c0,0-1.778-0.071-3.169,1.106c-1.391,1.177-5.618,9.792-4.495,12.039
				c1.124,2.247,6.928,5.404,9.805,3.05C460.206,288.581,456.776,276.15,455.188,274.741z"/>
			<path style="fill:#FF9B74;" d="M430.509,292.888c0,0-0.963-0.963-1.846-1.766c-0.883-0.803-3.398-1.07-3.398-1.07
				s0.107,0.696,0.187,0.803c0.08,0.107,1.364,0.615,1.364,0.615s-2.782,0.348-2.943,0.401c-0.161,0.054-1.311-0.615-1.819-0.696
				c-0.508-0.08-1.017,0.294-1.017,0.294s0.936,0.883,1.284,1.177c0.348,0.294,0.99,0.401,0.99,0.401s0.08,0.642,0.401,0.936
				c0.321,0.294,0.615,0.401,0.615,0.401s0.08,0.241,0.482,0.535c0.401,0.294,0.963,0.348,0.963,0.348s0.053,0.294,0.321,0.428
				c0.268,0.134,3.318,0.455,3.318,0.455L430.509,292.888z"/>
			<path style="fill:#E7B142;" d="M446.45,334.026L446.45,334.026c-6.715,0-12.159-5.444-12.159-12.159v-14.105h11.488h12.831
				v14.105C458.609,328.582,453.165,334.026,446.45,334.026z"/>
			<path style="fill:none;stroke:#C5BA9F;stroke-linecap:round;stroke-miterlimit:10;" d="M440.087,310.198
				c0,0-0.482-12.2,5.297-14.465"/>
			<path style="fill:#C5BA9F;" d="M441.157,310.038c0,0.591-0.479,1.07-1.07,1.07s-1.07-0.479-1.07-1.07
				c0-0.591,0.479-1.07,1.07-1.07S441.157,309.447,441.157,310.038z"/>
			<path style="fill:#727FCC;" d="M483.13,329.43c-1.14,1.26-2.84,2.32-5.33,2.71c-8.05,1.29-11.8-4.28-11.8-4.28
				c4.82-0.11,13.1-2.82,17.17-4.25c0.01,0.26,0.02,0.53,0.03,0.79C483.25,326.17,483.21,327.87,483.13,329.43z"/>
			<path style="fill:#727FCC;" d="M476.013,305.444c0.467,0.391-12.12,0-12.12,0S470.039,300.437,476.013,305.444z"/>
		</g>
		<g>
			<g>
				<path style="fill:#AA6750;" d="M582.834,269.749l0.726,7.744c0,0,4.961,4.053,6.594,1.452l-0.666-5.929L582.834,269.749z"/>
				<path style="fill:#BA785B;" d="M580.419,265.411c1.308,6.54,7.245,10.31,11.17,8.809c4.018-1.537,4.264-8.912,3.42-13.13
					c-0.844-4.218-4.834-6.622-9.053-5.778C581.739,256.155,579.576,261.193,580.419,265.411z"/>
				<polygon style="fill:#353235;" points="598.788,405.551 601.425,410.98 608.117,409.219 605.713,403.728 				"/>
				<path style="fill:#766A5A;" d="M616.328,411.089c0,0-0.613-1.277-3.709-1.901c-3.097-0.624-4.918-0.255-4.918-0.255
					l-6.637,1.747c0,0,0.326,3.566,1.058,5.088l14.437-3.8C616.56,411.968,616.658,411.499,616.328,411.089z"/>
				<polygon style="fill:#353235;" points="568.492,399.213 566.165,404.765 571.963,408.543 574.602,402.668 				"/>
				<path style="fill:#5E4F45;" d="M576.088,415.884c0,0,0.535-1.312-1.081-4.026s-3.112-3.816-3.112-3.816l-5.75-3.747
					c0,0-2.425,2.635-3.061,4.2l12.507,8.15C575.592,416.646,576.005,416.404,576.088,415.884z"/>
				<path style="fill:#F2A7A5;" d="M594.742,288.01l7.733,34.816l6.107,14.269l-6.107,3.773c0,0-4.023-4.914-6.021-10.194
					C594.456,325.394,594.742,288.01,594.742,288.01z"/>
				<path style="fill:#473A33;" d="M597.881,331.442c0,0,1.944,20.733,1.712,30.837c-0.232,10.104-23.115,41.236-23.115,41.236
					l-9.417-4.709c0,0,8.58-19.905,16.276-24.828l5.769-19.184l-3.853-25.082l10.916-3.249L597.881,331.442z"/>
				<path style="fill:#5E4F45;" d="M572.893,332.25c0,0,5.642,26.556,13.776,37.674c0,0,3.638,27.599,9.631,36.802l10.916-3.211
					c0,0-9.631-39.16-11.558-44.408c-1.926-5.247-7.561-27.666-7.561-27.666L572.893,332.25z"/>
				<path style="fill:#E7B142;" d="M580.239,258.652c0,0-1.799,0.499-2.37,3.139c-0.571,2.64,0.642,5.565,2.176,7.491
					c1.534,1.926,2.996,2.675,2.996,2.675l0.571-2.39c0,0-2.854-1.249-2.675-3.995c0.178-2.747,2.033-1.855,2.461-0.963
					c0.428,0.892,0.428,1.677,0.428,1.677l1.07-0.321c0,0,1.784-3.139,0.713-6.064c0,0,1.284,0.856,3.353,0.714
					c2.069-0.143,1.712-0.999,1.712-0.999s0.877,0.578,2.461,0.499c1.585-0.079,2.497-1.284,2.64-2.747
					c0.143-1.462-1.926-4.423-7.241-3.817C583.22,254.158,580.718,256.12,580.239,258.652z"/>
				<path style="fill:#5E4F45;" d="M589.462,258.617c8.704-4.543,10.202-5.065,10.131-6.207c-0.071-1.142-7.42,1.061-7.42,1.061
					s-4.138-5.127-7.206-5.912c-3.068-0.785-7.42,2.64-8.276,3.496c-0.856,0.856,1.034,8.276,1.034,8.276s-6.242,4.183-5.457,5.516
					S579.474,263.83,589.462,258.617z"/>
				<path style="fill:#E57B6A;" d="M582.042,276.527c0,0-8.84,6.204-9.842,8.059l2.664,48.656h15.028l1.995-5.565l1.427,5.565
					l7.42-1.141c0,0-4.099-43.947-5.331-47.514c-1.232-3.568-5.511-5.312-5.511-5.312L582.042,276.527z"/>
				<path style="fill:#F7F7AF;" d="M575.336,349.009c0,0-1.57,0.927-1.142,4.923c0.428,3.995-1.86,11.58-0.074,15.992
					c1.786,4.412,12.815,4.412,15.933,1.273s0.978-10.559-1.733-14.768c-2.711-4.209-4.851-9.061-6.349-9.239
					c-1.498-0.178-1.578,0.368-1.578,0.368l0.436,0.916c0,0,0.856,0.107,1.998,2.39c1.142,2.283-3.282,4.495-5.636,4.138
					c-2.354-0.357-1.605-4.031-1.605-4.031L575.336,349.009z"/>
				<path style="fill:#BA785B;" d="M580.393,347.558l1.578-0.368c0,0-0.571-0.499-1.463-1.463c-0.486-0.525-1.019-0.78-1.409-0.908
					c-0.262-0.556-0.446-0.947-0.446-0.947l-0.321-1.07l-4.503,1.874c0,0,0.543,4.583,1.756,6.295
					c1.213,1.712,1.998,1.07,1.998,1.07c0.856,0.214,1.07-0.214,1.07-0.214c0.892,0.25,1.177-0.499,1.177-0.499
					c0.749,0.214,0.999-0.25,0.999-0.25s0.464-1.641,0-2.604C580.732,348.27,580.576,347.942,580.393,347.558z"/>
				<polygon style="fill:#F2A7A5;" points="582.042,276.527 583.306,274.783 589.893,279.275 587.821,280.84 				"/>
				<path style="fill:#F2A7A5;" d="M572.2,284.586l-9.025,33.206l9.025,27.378l8.039-2.439l-6.221-24.939l7.168-25.468
					C581.186,292.324,577.768,285.086,572.2,284.586z"/>
				<path style="fill:#CEC49D;" d="M609.144,342.062l0.107,1.204c0,0-0.589,1.364-0.241,2.007c0.348,0.642,1.017-1.124,1.097-1.605
					C610.188,343.186,609.144,342.062,609.144,342.062z"/>
				<path style="fill:#E5DCB5;" d="M609.412,342.891l0.107,1.204c0,0-0.589,1.364-0.241,2.007c0.348,0.642,1.017-1.124,1.097-1.605
					C610.455,344.015,609.412,342.891,609.412,342.891z"/>
				<path style="fill:#BA785B;" d="M603.767,340.07l0.392,0.521c0,0,0.705,2.14,1.079,2.729c0.375,0.589,1.977,2.033,1.977,2.033
					s0.618-0.294,0.457-0.829c-0.16-0.535-1.017-1.498-1.017-1.498s-0.348-1.177,0.321-1.525c0.669-0.348,1.578,0.375,2.007,1.017
					c0.428,0.642,0.91,1.445,1.017,1.766c0.107,0.321-0.241,1.471,0,2.033c0.241,0.562,0.615,0.589,0.615,0.589
					s0.749-2.06,0.589-2.381c-0.161-0.321,0.072-0.856,0.023-1.364c-0.049-0.508-0.317-0.749-0.317-1.124
					c0-0.375-0.589-1.311-0.803-1.632c-0.214-0.321-2.167-2.301-2.167-2.301l-0.307-0.422L603.767,340.07z"/>
			</g>
			<polygon style="fill:#F2A7A5;" points="589.936,276.999 589.893,279.275 591.955,280.43 591.214,278.179 			"/>
		</g>
		<g>
			<path style="fill:#727FCC;" d="M166.82,289.87c-1.16,2.37-2.89,3.9-4.57,4.88c-2.64,1.55-5.17,1.75-5.17,1.75l-0.92-1.61
				l-5.82-10.16l16.93-8.22C167.27,276.51,169.82,283.77,166.82,289.87z"/>
			<polygon style="fill:#FF9B74;" points="150.343,284.729 144.778,287.404 144.464,296.5 155.303,293.391 			"/>
			<path style="fill:#5F6FB2;" d="M162.25,294.75c-2.64,1.55-5.17,1.75-5.17,1.75l-0.92-1.61c-0.01-0.02-0.01-0.03-0.01-0.03
				s5.49-2.15,6.99-6C164.55,285.24,162.51,293.68,162.25,294.75z"/>
			<path style="fill:#FF9B74;" d="M138.571,286.505c1.626-6.081,9.31-23.393,9.31-23.393l4.388,1.07c0,0-2.14,21.831-4.495,28.038
				c-2.354,6.207-6.903,4.602-6.903,4.602S136.353,294.799,138.571,286.505z"/>
			<path style="fill:#FF9B74;" d="M152.225,264.62c0,0,2.256-1.544,2.969-3.113c0.713-1.57-1.141-2.889-1.712-3.032
				c-0.571-0.143-2.604-0.963-3.068-0.178c-0.464,0.785,2.105,1.891,2.105,1.891s-1.891,0.285-2.604,1.355
				c-0.714,1.07-0.535,3.46-0.535,3.46L152.225,264.62z"/>
			<path style="fill:#FF9B74;" d="M147.988,263.932c0,0-2.711-2.889-2.533-4.067c0.178-1.177,0.963-1.07,0.963-1.07
				s-0.464-1.034,0.107-1.641c0.571-0.606,1.035-0.392,1.035-0.392s-0.392-0.999,0.428-1.284c0.82-0.285,1.371,0,1.371,0
				s-0.016-0.499,0.912-0.464c0.928,0.036,2.212,0.927,2.533,1.784c0.321,0.856,0,1.891,0,1.891v1.855l-3.607,3.781L147.988,263.932
				z"/>
			<path style="fill:#8A93E2;" d="M177.472,275.311c0,0-8.771,0.77-10.198,1.198c0,0-5.588,7.649-5.018,20.348
				c0.571,12.699-0.999,25.826-0.999,25.826l30.107,0.785c0,0,7.171-38.711,6.029-44.133c-1.141-5.422-13.592-4.024-13.592-4.024
				H177.472z"/>
			<path style="fill:#E07E61;" d="M184.534,268.753l-0.762,8.134c0,0-5.211,4.257-6.926,1.525l0.699-6.227L184.534,268.753z"/>
			<path style="fill:#FF9B74;" d="M187.07,264.197c-1.374,6.87-7.61,10.829-11.732,9.252c-4.22-1.615-4.479-9.361-3.593-13.791
				c0.886-4.431,5.078-6.955,9.509-6.069C185.684,254.474,187.956,259.766,187.07,264.197z"/>
			<path style="fill:#2C2D32;" d="M176.337,254.964c0,0-0.222,1.271,1.462,3.177c1.684,1.906,4.194,1.875,4.194,1.875
				s-0.064,2.917,1.493,3.587c0,0,0.413-1.84,1.652-1.808c1.239,0.032,1.398,2.859,0.35,4.639c-1.048,1.779-1.906,1.366-1.906,1.366
				l0.72,3.439c0,0,6.079-4.678,5.221-12.176L176.337,254.964z"/>
			<path style="fill:#2C2D32;" d="M176.146,255.409c0,0-0.635,1.43-2.129,2.605c-1.493,1.176-2.192,1.287-2.192,1.287
				s-0.445-1.668,0.762-3.161c1.207-1.493,3.749-1.176,3.749-1.176L176.146,255.409z"/>
			<path style="fill:#8A93E2;" d="M174.041,253.057c0,0,1.501-3.145,4.806-3.654c3.304-0.508,5.306,1.493,6.609,2.288
				c1.303,0.794,2.764,1.144,3.527,3.05c0.762,1.906,0.54,4.321,0.54,4.321l-3.494-0.414
				C186.028,258.649,177.421,252.994,174.041,253.057z"/>
			<path style="fill:#353235;" d="M186.345,258.236c0,0-2.288-3.336-6.672-4.861c-4.384-1.525-9.754-0.477-10.349,0.445
				c-0.996,1.542,3.078,1.978,6.205,2.609C178.656,257.061,187.57,259.648,186.345,258.236z"/>
			<polygon style="fill:#FF9B74;" points="204.01,284.961 215.055,282.67 212.311,273.709 202.534,275.461 			"/>
			<path style="fill:#FF9B74;" d="M221.151,275.023c1.757-6.044,4.146-24.834,4.146-24.834l-4.308-1.356
				c0,0-9.472,19.786-10.671,26.315c-1.199,6.529,3.523,7.511,3.523,7.511S218.754,283.268,221.151,275.023z"/>
			<path style="fill:#FF9B74;" d="M220.249,249.698c0,0-0.959-2.56-0.641-4.254c0.318-1.694,2.595-1.709,3.144-1.497
				s2.685,0.708,2.613,1.617c-0.072,0.909-2.809,0.338-2.809,0.338s1.383,1.32,1.352,2.606c-0.031,1.286-1.551,3.139-1.551,3.139
				L220.249,249.698z"/>
			<path style="fill:#FF9B74;" d="M224.112,251.57c0,0,3.879-0.807,4.41-1.873c0.531-1.066-0.173-1.429-0.173-1.429
				s0.974-0.58,0.855-1.404c-0.119-0.824-0.621-0.916-0.621-0.916s0.895-0.592,0.388-1.297c-0.507-0.705-1.122-0.788-1.122-0.788
				s0.3-0.4-0.48-0.903c-0.779-0.504-2.343-0.512-3.098,0.004c-0.755,0.516-1.086,1.547-1.086,1.547l-1.066,1.518l0.779,5.167
				L224.112,251.57z"/>
			<path style="fill:#727FCC;" d="M192.214,275.597c0,0,8.708-1.249,13.563-1.249l0.892,13.306l-10.033,3.299
				C192.034,288.277,192.214,275.597,192.214,275.597z"/>
			<path style="fill:#353235;" d="M208.56,402.66h-12.2l-11.56-37.24l-8.35-28.68l-4.7,30.82c0.76,5.13,0.36,14.36-0.22,22.19
				l-0.01,0.12c-0.49,6.53-1.09,12.05-1.24,13.36l-0.03,0.29h-11.56c0,0-0.21-27.4,0-39.17c0.21-11.77,2.57-33.82,2.57-33.82v-7.85
				l30.11,0.79c0.36,0.75,0.71,1.59,1.03,2.51c3.99,11.28,5.03,33.45,5.03,33.45s0,0,3.85,9.04
				C205.13,377.52,208.56,402.66,208.56,402.66z"/>
			<polygon style="fill:#E7B142;" points="160.545,403.516 160.545,409.08 167.251,409.08 167.679,403.516 			"/>
			<polygon style="fill:#E7B142;" points="198.571,402.659 200.783,408.581 207.703,408.581 206.775,402.659 			"/>
			<path style="fill:#766A5A;" d="M152.751,411.328c0,0,0.268-1.391,3.103-2.782c2.836-1.391,4.691-1.498,4.691-1.498h6.863
				c0,0,0.593,3.531,0.272,5.19h-14.929C152.751,412.237,152.536,411.808,152.751,411.328z"/>
			<path style="fill:#766A5A;" d="M215.167,412.479c0,0-0.268-1.391-3.104-2.782c-2.836-1.391-4.691-1.498-4.691-1.498h-6.863
				c0,0-0.593,3.531-0.272,5.19h14.929C215.167,413.389,215.381,412.96,215.167,412.479z"/>
			<path style="fill:#E7B142;" d="M156.01,252.955l-12.773-14.866l-7.665,12.151l20.724,9.653c0.78,0.363,1.707,0.047,2.102-0.718
				l0.973-1.885c0.351-0.679,0.173-1.511-0.424-1.988L156.01,252.955z"/>
			<path style="fill:#5F6FB2;" d="M192.894,283.422c0,0,0.162,5.484,3.741,7.531l10.033-3.299c0,0-5.24,0.31-9.668,0.989
				C195.359,288.895,193.301,286.215,192.894,283.422z"/>
			<path style="fill:#8898DC;" d="M175,278.214c0,0-1.429,1.857,2.357,3.214c3.786,1.357,8.357-4.072,8.357-4.072
				s-4.143,3.286-7.786,2.714C174.286,279.5,175,278.214,175,278.214z"/>
			<path style="fill:#242426;" d="M171.75,367.56c0.76,5.13,0.36,14.36-0.22,22.19l-0.01,0.12l-1.24,13.36l-0.03,0.29h-2.57
				c0,0,2.75-24.66,1.61-33.54c-1.15-8.87,0-8.55,1.42-21.12c1.43-12.57,0-15.72,0-15.72l5.74,3.6L171.75,367.56z"/>
			<path style="fill:#242426;" d="M192.4,325.98l-31.14-1.27v-2.03l30.11,0.79C191.73,324.22,192.08,325.06,192.4,325.98z"/>
		</g>
	</g>
</g>
</svg>
